<svg version="1.1" viewBox="0 0 300 300">
    <polygon fill="#7045AF" points="0.166650288 45.0855591 254.914441 0.166650288 299.83335 254.914441 45.0855591 299.83335"/>
    <path fill="#76DBD1" d="M127.39675,197.472179 L127.39675,140.928821 L106.908098,182.039169 L95.2002975,182.039169 L74.7116458,140.928821 L74.7116458,197.472179 L52.892562,197.472179 L52.892562,103.011512 L76.5742505,103.011512 L101.054198,152.370536 L125.667189,103.011512 L149.215835,103.011512 L149.215835,197.472179 L127.39675,197.472179 Z M161.854938,149.443586 C161.854938,143.767048 162.919273,138.112769 165.047974,132.480579 C167.176676,126.848389 170.280987,121.814972 174.360998,117.380177 C178.44101,112.945381 183.407906,109.353251 189.261836,106.603678 C195.115765,103.854105 201.767859,102.479339 209.218315,102.479339 C218.087906,102.479339 225.78216,104.386272 232.301309,108.200196 C238.820458,112.01412 243.676486,116.981017 246.869539,123.101034 L230.106097,134.808835 C229.041745,132.32535 227.689153,130.263201 226.048279,128.622326 C224.407405,126.981452 222.61134,125.651034 220.66003,124.631031 C218.70872,123.611028 216.713092,122.901471 214.673086,122.50234 C212.63308,122.103208 210.637452,121.903645 208.686142,121.903645 C204.517435,121.903645 200.880957,122.746244 197.7766,124.431466 C194.672244,126.116688 192.100101,128.289705 190.060095,130.950583 C188.020089,133.61146 186.512281,136.627075 185.536626,139.99752 C184.560971,143.367964 184.073151,146.782705 184.073151,150.241845 C184.073151,153.967074 184.649666,157.559204 185.802712,161.018344 C186.95576,164.477484 188.618783,167.537447 190.791832,170.198325 C192.964882,172.859202 195.581372,174.965698 198.641381,176.517876 C201.70139,178.070055 205.138304,178.846132 208.952228,178.846132 C210.903538,178.846132 212.92134,178.602222 215.005693,178.114394 C217.090048,177.626567 219.085675,176.872663 220.992637,175.85266 C222.899599,174.832657 224.651317,173.502239 226.247844,171.861364 C227.84437,170.22049 229.130441,168.202688 230.106097,165.807899 L247.933884,176.318312 C246.51475,179.777452 244.408254,182.881762 241.614332,185.631335 C238.820412,188.380908 235.605233,190.686967 231.968701,192.549581 C228.332169,194.412195 224.473955,195.831308 220.393943,196.806964 C216.313931,197.782618 212.322675,198.270439 208.420055,198.270439 C201.590471,198.270439 195.31533,196.873499 189.594444,194.079578 C183.873558,191.285657 178.951009,187.582659 174.82665,182.970471 C170.702289,178.358284 167.509285,173.125304 165.24754,167.271374 C162.985793,161.417445 161.854938,155.474908 161.854938,149.443586 Z"/>
</svg>
